<svg width="40"
    height="40"
    viewBox="0 0 40 40"
    fill="none"
    xmlns="http://www.w3.org/2000/svg">
    <g filter="url(#filter0_d_1160_12030)">
        <circle
            cx="20"
            cy="20"
            r="16"
            fill="white" />
    </g>
    <rect
        x="10"
        y="10.0001"
        width="20"
        height="20"
        fill="white" />
    <path
        d="M16.0858 12.9238C15.8799 12.9238 15.446 12.9707 15.25 12.8994C15.415 13.5595 15.2346 14.2778 15.2798 14.9509C15.3208 15.5594 15.3233 16.1709 15.3233 16.7812C15.3233 17.2071 15.3965 17.6246 15.3965 18.0471C15.3965 18.3573 15.4291 18.6626 15.4467 18.971C15.471 19.3953 15.4884 19.8255 15.4942 20.2505C15.4997 20.6493 15.5675 21.048 15.5675 21.4472C15.5675 21.7428 15.5919 22.0441 15.5919 22.3427C15.5919 22.5358 15.6408 22.7201 15.6408 22.9125C15.6408 23.0547 15.6896 23.1908 15.6896 23.329V23.8663C15.6896 24.4029 15.6803 24.9429 15.5431 25.466C15.5054 25.6095 15.4959 25.7319 15.4942 25.8785C15.4922 26.0521 15.4524 26.2208 15.4467 26.394C15.4404 26.5885 15.4403 26.7805 15.4264 26.9747C15.4185 27.0848 15.4073 27.1848 15.5132 27.0819C15.6995 26.9009 15.8677 26.7073 16.0315 26.508C16.1295 26.3888 16.274 26.2953 16.3843 26.1851C16.7447 25.8246 17.2498 25.6256 17.619 25.2706C17.724 25.1696 17.8517 25.0973 17.969 25.0128C18.0181 24.9774 18.0508 24.9199 18.1047 24.8907C18.2832 24.7938 18.4312 24.6137 18.5931 24.4891C19.011 24.1677 19.4095 23.8438 19.8156 23.5081C19.8611 23.4706 20.2027 23.093 20.262 23.1269C20.3277 23.1644 20.3923 23.2024 20.4492 23.2531C20.6621 23.4423 20.8912 23.6322 21.1303 23.7863C21.2837 23.8851 21.4084 24.0457 21.5414 24.1689C21.7446 24.357 21.9584 24.5352 22.1588 24.7279C22.2908 24.8548 22.4453 24.9547 22.5767 25.0861C22.7195 25.2289 22.8874 25.3416 23.038 25.4755C23.2108 25.6291 23.3666 25.8047 23.5481 25.949C23.7098 26.0775 23.9013 26.1983 24.0366 26.356C24.1622 26.5026 24.3465 26.6431 24.5033 26.7563C24.5408 26.7833 24.677 26.8408 24.677 26.7577C24.677 26.4031 24.6526 26.0523 24.6526 25.6966V23.097C24.6526 22.72 24.7258 22.3492 24.7258 21.9736V20.8502V18.7607V18.0498C24.7258 17.7955 24.7135 17.538 24.7367 17.2845C24.7499 17.1404 24.7747 16.9994 24.7747 16.8544C24.7747 16.2077 24.9212 15.5589 24.9212 14.9129C24.9212 14.4817 24.7747 14.0594 24.7747 13.6334C24.7747 13.4632 24.8174 12.9859 24.5793 12.9726C24.4691 12.9665 24.3627 12.9815 24.2537 12.9971C23.8692 13.052 23.4469 13.0303 23.0583 13.0188C22.2972 12.9962 21.5574 12.9097 20.7966 12.9482C20.1531 12.9808 19.5086 12.9726 18.8645 12.9726C18.4893 12.9726 18.1237 12.9238 17.7506 12.9238H16.946H16.0858Z"
        fill="white"
        stroke="#FD663D"
        stroke-width="1.5"
        stroke-linecap="round"
        stroke-linejoin="round" />
    <defs>
        <filter
            id="filter0_d_1160_12030"
            x="0"
            y="0"
            width="40"
            height="40"
            filterUnits="userSpaceOnUse"
            color-interpolation-filters="sRGB">
            <feFlood
                flood-opacity="0"
                result="BackgroundImageFix" />
            <feColorMatrix
                in="SourceAlpha"
                type="matrix"
                values="0 0 0 0 0 0 0 0 0 0 0 0 0 0 0 0 0 0 127 0"
                result="hardAlpha" />
            <feOffset />
            <feGaussianBlur stdDeviation="2" />
            <feComposite
                in2="hardAlpha"
                operator="out" />
            <feColorMatrix
                type="matrix"
                values="0 0 0 0 0.4 0 0 0 0 0.4 0 0 0 0 0.4 0 0 0 0.25 0" />
            <feBlend
                mode="normal"
                in2="BackgroundImageFix"
                result="effect1_dropShadow_1160_12030" />
            <feBlend
                mode="normal"
                in="SourceGraphic"
                in2="effect1_dropShadow_1160_12030"
                result="shape" />
        </filter>
    </defs>
</svg>
